<svg width="24" height="24" viewBox="0 0 24 24" fill="none" xmlns="http://www.w3.org/2000/svg">
<g clip-path="url(#clip0_46_64)">
<path d="M2.00035 12.176C2.02969 14.8117 3.0945 17.3302 4.96486 19.1876C5.89074 20.1063 6.99223 20.8289 8.20357 21.3125C9.41492 21.796 10.7113 22.0305 12.0152 22.002C14.6872 21.958 17.2346 20.8644 19.1068 18.9575C20.0432 18.0243 20.7819 16.9119 21.2788 15.6868C21.7757 14.4617 22.0205 13.1491 21.9987 11.8272C22.0001 10.5357 21.7466 9.25654 21.2528 8.06313C20.759 6.86972 20.0346 5.78548 19.121 4.87256C18.2074 3.95964 17.1226 3.23598 15.9288 2.74306C14.7351 2.25013 13.4557 1.99763 12.1642 2.00002L11.9838 2.00002C9.31149 2.02878 6.75972 3.11626 4.88816 5.02391C3.01661 6.93156 1.97807 9.50364 2.00035 12.176ZM13.2105 16.848C13.2105 17.1692 13.0829 17.4772 12.8558 17.7043C12.6287 17.9314 12.3207 18.059 11.9995 18.059C11.6783 18.059 11.3703 17.9314 11.1432 17.7043C10.9161 17.4772 10.7885 17.1692 10.7885 16.848V11.3985C10.7885 11.0773 10.9161 10.7693 11.1432 10.5422C11.3703 10.3151 11.6783 10.1875 11.9995 10.1875C12.3207 10.1875 12.6287 10.3151 12.8558 10.5422C13.0829 10.7693 13.2105 11.0773 13.2105 11.3985V16.848ZM11.9729 5.92121H11.9995C12.401 5.91783 12.7873 6.07408 13.0736 6.35558C13.3599 6.63708 13.5226 7.02076 13.526 7.42223C13.5293 7.8237 13.3731 8.21006 13.0916 8.49633C12.8101 8.78259 12.4264 8.94531 12.0249 8.94868H11.9995C11.598 8.95189 11.2117 8.79549 10.9256 8.51388C10.6394 8.23227 10.4769 7.84852 10.4737 7.44705C10.4704 7.04559 10.6268 6.65929 10.9085 6.37313C11.1901 6.08698 11.5738 5.92442 11.9753 5.92121H11.9729Z" fill="#161616"/>
</g>
<defs>
<clipPath id="clip0_46_64">
<rect width="24" height="24" fill="white"/>
</clipPath>
</defs>
</svg>
