<svg width="14" height="14" viewBox="0 0 14 14" fill="none" xmlns="http://www.w3.org/2000/svg">
<path d="M0.333578 7.1173C0.353137 8.87447 1.06301 10.5535 2.30991 11.7917C2.92717 12.4041 3.6615 12.8859 4.46906 13.2083C5.27662 13.5306 6.14086 13.687 7.01017 13.6679C8.7915 13.6387 10.4898 12.9096 11.7379 11.6383C12.3622 11.0162 12.8546 10.2746 13.1859 9.45788C13.5171 8.64114 13.6803 7.76602 13.6658 6.88479C13.6667 6.02376 13.4978 5.17101 13.1686 4.3754C12.8394 3.57979 12.3564 2.85697 11.7473 2.24835C11.1383 1.63974 10.4151 1.1573 9.61923 0.828683C8.82338 0.500066 7.9705 0.33173 7.10948 0.333324L6.98918 0.333324C5.20767 0.352502 3.50649 1.07748 2.25879 2.34925C1.01108 3.62102 0.318724 5.33574 0.333578 7.1173ZM7.80701 10.232C7.80701 10.4461 7.72195 10.6514 7.57055 10.8028C7.41914 10.9542 7.2138 11.0393 6.99968 11.0393C6.78556 11.0393 6.58022 10.9542 6.42881 10.8028C6.27741 10.6514 6.19235 10.4461 6.19235 10.232V6.59899C6.19235 6.38488 6.27741 6.17953 6.42881 6.02813C6.58022 5.87672 6.78556 5.79166 6.99968 5.79166C7.2138 5.79166 7.41914 5.87672 7.57055 6.02813C7.72195 6.17953 7.80701 6.38488 7.80701 6.59899V10.232ZM6.98192 2.94745H6.99968C7.26733 2.9452 7.5249 3.04937 7.71575 3.23703C7.90659 3.4247 8.01507 3.68049 8.01731 3.94813C8.01956 4.21578 7.9154 4.47335 7.72773 4.6642C7.54007 4.85504 7.28428 4.96352 7.01663 4.96577H6.99968C6.73203 4.96791 6.4745 4.86364 6.28373 4.6759C6.09296 4.48816 5.98459 4.23233 5.98245 3.96468C5.98031 3.69704 6.08457 3.4395 6.27232 3.24874C6.46005 3.05797 6.71589 2.94959 6.98353 2.94745H6.98192Z" fill="#3F7BF2"/>
</svg>
